PathFileType	4	(X/Y/Z)	Walk4.trc
DataRate	CameraRate	NumFrames	NumMarkers	Units	OrigDataRate	OrigDataStartFrame	OrigNumFrames
200.000000	200.000000	9	58	mm	200.000000	621	662
Frame#	Times		RLFC		RBHD		RMT5		RToe		RTB2		RMT1		LACR1		LElbow		LUA1		LWRR		C7		LCAR		RCAL		RFA1		RCAR		RTH3		LLFC		LTH3		LPSI		LASI		LMMAL		RPSI		LTB2		LCAL		LMT5		RLMAL		RFHD		LTH2		RElbow		RWRR		RMFC		LElbowM		LTB1		LToe		RTH1		RTH4		LTH4		T10		LTH1		RBack		RWRU		LTB3		LTB4		LBHD		LWRU		RTB4		LLMAL		LMT1		RTB3		LMFC		RTB1		RASI		RTH2		LFHD		RACR1		RUA1		RMMAL		RElbowM
			X1	Y1	Z1	X2	Y2	Z2	X3	Y3	Z3	X4	Y4	Z4	X5	Y5	Z5	X6	Y6	Z6	X7	Y7	Z7	X8	Y8	Z8	X9	Y9	Z9	X10	Y10	Z10	X11	Y11	Z11	X12	Y12	Z12	X13	Y13	Z13	X14	Y14	Z14	X15	Y15	Z15	X16	Y16	Z16	X17	Y17	Z17	X18	Y18	Z18	X19	Y19	Z19	X20	Y20	Z20	X21	Y21	Z21	X22	Y22	Z22	X23	Y23	Z23	X24	Y24	Z24	X25	Y25	Z25	X26	Y26	Z26	X27	Y27	Z27	X28	Y28	Z28	X29	Y29	Z29	X30	Y30	Z30	X31	Y31	Z31	X32	Y32	Z32	X33	Y33	Z33	X34	Y34	Z34	X35	Y35	Z35	X36	Y36	Z36	X37	Y37	Z37	X38	Y38	Z38	X39	Y39	Z39	X40	Y40	Z40	X41	Y41	Z41	X42	Y42	Z42	X43	Y43	Z43	X44	Y44	Z44	X45	Y45	Z45	X46	Y46	Z46	X47	Y47	Z47	X48	Y48	Z48	X49	Y49	Z49	X50	Y50	Z50	X51	Y51	Z51	X52	Y52	Z52	X53	Y53	Z53	X54	Y54	Z54	X55	Y55	Z55	X56	Y56	Z56	X57	Y57	Z57	X58	Y58	Z58

621	3.105	816.3	548.04	147.21	641.73	1613.4	-55.983	705.03	70.236	150.88	788.94	69.488	120.52	752.77	329.86	142.14	743	64.532	79.324	692.17	1420.2	-163.53	626.19	1082.2	-280.05	665.78	1217.3	-240.93	715.52	814.99	-275.72	608.11	1480.6	8.7288	655.31	943.97	-283.65	547.86	123.03	65.006	640.01	922.64	285.2	726.79	784.63	276.98	802.78	590.69	149.55	688.86	513.07	-107.73	696.38	576.54	-118.44	518.63	1037.7	-34.577	708.09	1037.5	-151.71	631.87	68.555	17.44	515.27	1037.3	34.624	698.44	293.79	-86.357	545.06	35.373	-20.371	726.2	25.348	-88.464	609.53	147.74	125.22	819.02	1647.9	-27.139	750.2	679.49	-100.67	611.85	1081.8	283.83	728.8	829.1	226.04	798.87	515.44	20.345	583.58	1070.8	-207.6	719.64	386.63	-17.649	812.49	40.424	-27.529	734.02	765.72	182.13	768.66	678.03	167.17	690.82	668.61	-142.42	531.75	1224.4	8.6901	678.76	756.96	-159.59	592.98	1368.7	161.68	655.24	802.04	258.18	676.08	205.82	-13.57	697.2	296.06	-14.463	645.07	1603.1	80.757	789.07	809.83	-264.19	763.17	322.58	67.038	612.38	59.767	-66.563	764.35	28.807	-7.3849	713.98	248.2	69.777	668.18	496.03	18.064	812.57	410.17	71.904	707.3	991.04	153.84	823.52	706.2	126.13	820.81	1644.1	47.726	723.67	1422.1	160.19	687.65	1240.7	243.03	638.54	139.75	48.223	574.1	1087	207.54
622	3.11	822.87	549.13	147.2	646.32	1613.6	-55.963	723.01	68.112	150.95	807.26	69.231	120.77	764.14	329.01	142.13	761.35	63.426	79.54	696.68	1420.5	-163.54	632.57	1082.3	-280.41	671.38	1217.6	-241.08	724.73	816.05	-275.15	612.63	1480.8	8.6856	663.12	944.32	-283.59	564.69	117.1	64.742	643.72	922.97	285.07	730.22	784.74	276.85	809.07	591.82	149.66	690.6	512.89	-107.75	698.64	576.41	-118.43	523.32	1037.9	-34.384	712.75	1037.8	-151.78	631.99	68.479	17.509	520.11	1037.5	34.802	699.31	293.49	-86.376	545.15	35.41	-20.266	726.25	25.317	-88.545	625.62	143.2	125.09	823.62	1648.1	-27.129	753.03	679.02	-100.46	615.98	1082.2	283.8	732.38	829.24	225.96	805.52	516.19	20.455	589.94	1070.6	-208.1	720.87	386.19	-17.611	812.63	40.229	-27.554	738.13	765.81	181.82	774.56	678.88	167.23	693.69	668.52	-142.4	536.45	1224.6	8.6975	681.9	756.78	-159.38	597.52	1368.9	161.59	658.7	802.37	258.07	676.65	205.62	-13.569	698.09	295.77	-14.46	649.66	1603.4	80.781	798.36	811.73	-263.57	774.79	321.95	67.106	612.43	59.793	-66.508	764.35	28.896	-7.4664	727.6	246.4	69.723	669.68	495.91	18.019	821.65	411.08	72.402	712.2	991.39	153.84	829.16	707.32	125.93	825.42	1644.2	47.733	728.23	1422.3	160.15	691.94	1241	242.98	655.01	135.95	48.197	578.17	1087.5	207.44
623	3.115	829.25	550.09	147.21	650.91	1613.8	-55.943	741.08	66.021	151.01	825.64	68.993	121.01	775.46	328.11	142.12	779.79	62.349	79.749	701.21	1420.8	-163.55	638.93	1082.4	-280.78	676.96	1217.9	-241.24	733.89	817.12	-274.56	617.19	1480.9	8.6598	670.92	944.67	-283.52	581.75	111.2	64.45	647.48	923.27	284.97	733.69	784.82	276.73	815.19	592.83	149.79	692.34	512.71	-107.77	700.92	576.29	-118.41	528.01	1038.1	-34.175	717.42	1038	-151.84	632.1	68.416	17.582	524.95	1037.6	34.997	700.17	293.19	-86.4	545.23	35.448	-20.161	726.29	25.284	-88.625	641.88	138.67	124.95	828.24	1648.3	-27.119	755.86	678.55	-100.23	620.14	1082.5	283.78	736	829.35	225.89	811.95	516.81	20.596	596.29	1070.4	-208.59	722.1	385.76	-17.583	812.75	40.058	-27.58	742.31	765.91	181.48	780.36	679.63	167.29	696.57	668.41	-142.39	541.16	1224.7	8.7307	685.18	756.63	-159.28	602.09	1369	161.5	662.21	802.68	257.99	677.22	205.41	-13.562	698.99	295.48	-14.458	654.26	1603.5	80.805	807.61	813.64	-262.92	786.39	321.29	67.185	612.48	59.82	-66.454	764.34	29.006	-7.5477	741.26	244.59	69.686	671.17	495.79	17.98	830.63	411.86	72.888	717.11	991.67	153.86	834.69	708.28	125.72	830.03	1644.4	47.743	732.81	1422.5	160.12	696.25	1241.2	242.95	671.65	132.18	48.157	582.26	1088	207.38
624	3.12	835.42	550.91	147.24	655.52	1614	-55.922	759.25	63.983	151.06	844.07	68.79	121.26	786.74	327.16	142.14	798.29	61.318	79.957	705.77	1421.1	-163.54	645.29	1082.4	-281.16	682.52	1218.2	-241.41	743.02	818.19	-273.94	621.78	1481.1	8.6518	678.68	945.01	-283.45	599.04	105.37	64.13	651.28	923.52	284.89	737.21	784.86	276.6	821.15	593.72	149.96	694.08	512.52	-107.8	703.21	576.15	-118.39	532.69	1038.2	-33.946	722.08	1038.3	-151.92	632.21	68.365	17.658	529.8	1037.7	35.211	701.03	292.88	-86.427	545.32	35.486	-20.057	726.34	25.247	-88.705	658.3	134.15	124.8	832.87	1648.4	-27.107	758.68	678.09	-99.985	624.3	1082.8	283.79	739.65	829.43	225.82	818.15	517.27	20.764	602.63	1070.1	-209.07	723.34	385.33	-17.567	812.88	39.907	-27.606	746.59	766.02	181.16	786.03	680.27	167.36	699.45	668.3	-142.38	545.88	1224.8	8.7888	688.61	756.53	-159.3	606.67	1369.2	161.43	665.77	802.95	257.96	677.8	205.21	-13.55	699.89	295.19	-14.459	658.88	1603.7	80.832	816.83	815.56	-262.25	797.97	320.6	67.275	612.54	59.849	-66.4	764.33	29.129	-7.6261	754.95	242.77	69.672	672.67	495.66	17.943	839.52	412.53	73.351	722.01	991.86	153.91	840.12	709.1	125.49	834.66	1644.5	47.756	737.42	1422.6	160.11	700.57	1241.4	242.95	688.46	128.46	48.104	586.38	1088.3	207.34
625	3.125	841.38	551.59	147.28	660.15	1614.1	-55.898	777.5	62.022	151.12	862.53	68.643	121.51	797.95	326.18	142.18	816.86	60.349	80.17	710.35	1421.3	-163.52	651.65	1082.4	-281.55	688.06	1218.4	-241.6	752.1	819.24	-273.29	626.4	1481.2	8.6617	686.43	945.33	-283.38	616.55	99.611	63.784	655.12	923.72	284.83	740.79	784.86	276.48	826.93	594.49	150.15	695.82	512.33	-107.84	705.51	576.02	-118.37	537.37	1038.3	-33.697	726.74	1038.5	-152	632.3	68.328	17.739	534.66	1037.7	35.446	701.89	292.58	-86.457	545.39	35.526	-19.956	726.38	25.207	-88.782	674.88	129.69	124.65	837.52	1648.5	-27.09	761.49	677.63	-99.726	628.46	1083	283.8	743.34	829.47	225.73	824.14	517.57	20.953	608.96	1069.8	-209.54	724.56	384.9	-17.563	812.99	39.772	-27.634	750.97	766.12	180.86	791.6	680.8	167.44	702.34	668.17	-142.37	550.61	1224.8	8.8705	692.2	756.47	-159.42	611.29	1369.2	161.36	669.38	803.2	257.99	678.38	205	-13.534	700.8	294.9	-14.462	663.52	1603.8	80.862	825.99	817.49	-261.54	809.51	319.91	67.38	612.59	59.878	-66.345	764.31	29.259	-7.6984	768.65	240.97	69.683	674.17	495.53	17.906	848.32	413.07	73.779	726.91	991.98	153.98	845.45	709.77	125.25	839.3	1644.6	47.775	742.05	1422.6	160.11	704.91	1241.6	242.98	705.44	124.81	48.039	590.51	1088.7	207.34
626	3.13	847.13	552.12	147.33	664.8	1614.2	-55.871	795.83	60.158	151.17	881.01	68.572	121.78	809.1	325.18	142.24	835.49	59.459	80.39	714.95	1421.5	-163.49	658	1082.4	-281.94	693.59	1218.6	-241.8	761.14	820.29	-272.62	631.06	1481.2	8.6895	694.15	945.63	-283.31	634.26	93.965	63.416	659.01	923.88	284.79	744.41	784.82	276.36	832.54	595.12	150.36	697.57	512.13	-107.88	707.82	575.87	-118.36	542.05	1038.4	-33.426	731.39	1038.6	-152.09	632.37	68.303	17.821	539.53	1037.7	35.704	702.75	292.27	-86.489	545.46	35.568	-19.858	726.43	25.162	-88.856	691.6	125.3	124.49	842.19	1648.6	-27.066	764.29	677.17	-99.459	632.64	1083.2	283.82	747.07	829.47	225.65	829.93	517.71	21.159	615.28	1069.5	-209.99	725.79	384.48	-17.571	813.1	39.647	-27.663	755.46	766.22	180.6	797.06	681.22	167.52	705.22	668.03	-142.37	555.35	1224.9	8.9741	695.95	756.44	-159.62	615.92	1369.3	161.3	673.03	803.43	258.07	678.96	204.79	-13.516	701.7	294.6	-14.467	668.17	1603.9	80.895	835.11	819.41	-260.81	821.01	319.21	67.502	612.64	59.91	-66.291	764.3	29.385	-7.7615	782.37	239.2	69.722	675.69	495.39	17.866	857.04	413.5	74.162	731.83	992.03	154.07	850.67	710.27	125	843.95	1644.7	47.803	746.71	1422.7	160.13	709.26	1241.7	243.03	722.56	121.27	47.966	594.67	1088.9	207.37
627	3.135	852.67	552.49	147.39	669.47	1614.2	-55.837	814.23	58.413	151.23	899.52	68.598	122.05	820.18	324.17	142.32	854.16	58.668	80.618	719.57	1421.7	-163.45	664.36	1082.4	-282.33	699.1	1218.7	-242.02	770.13	821.31	-271.92	635.76	1481.2	8.7348	701.86	945.91	-283.23	652.16	88.453	63.03	662.94	923.98	284.77	748.09	784.74	276.24	837.96	595.61	150.58	699.32	511.92	-107.92	710.13	575.72	-118.35	546.74	1038.4	-33.132	736.02	1038.7	-152.19	632.44	68.287	17.905	544.41	1037.7	35.984	703.62	291.95	-86.524	545.52	35.611	-19.763	726.47	25.113	-88.927	708.46	121	124.33	846.88	1648.7	-27.034	767.08	676.7	-99.192	636.82	1083.3	283.85	750.84	829.44	225.55	835.51	517.68	21.377	621.59	1069.2	-210.43	727.02	384.06	-17.591	813.21	39.526	-27.694	760.05	766.3	180.4	802.4	681.53	167.61	708.1	667.88	-142.36	560.11	1224.9	9.0977	699.82	756.45	-159.91	620.59	1369.3	161.25	676.73	803.64	258.21	679.54	204.58	-13.496	702.6	294.3	-14.476	672.85	1603.9	80.934	844.17	821.33	-260.06	832.45	318.52	67.644	612.69	59.942	-66.236	764.28	29.502	-7.8134	796.11	237.47	69.786	677.22	495.24	17.824	865.69	413.82	74.488	736.75	991.99	154.17	855.78	710.62	124.76	848.62	1644.7	47.84	751.41	1422.6	160.15	713.64	1241.7	243.1	739.83	117.85	47.885	598.85	1089.1	207.42
628	3.14	858	552.7	147.47	674.17	1614.2	-55.795	832.69	56.809	151.28	918.03	68.744	122.33	831.17	323.17	142.43	872.87	57.994	80.853	724.22	1421.8	-163.4	670.71	1082.3	-282.72	704.58	1218.9	-242.25	779.07	822.32	-271.2	640.49	1481.2	8.7973	709.54	946.18	-283.15	670.25	83.102	62.632	666.91	924.05	284.77	751.81	784.63	276.13	843.19	595.94	150.8	701.07	511.7	-107.97	712.44	575.56	-118.35	551.42	1038.4	-32.813	740.64	1038.8	-152.3	632.49	68.278	17.99	549.31	1037.6	36.287	704.49	291.63	-86.559	545.57	35.657	-19.67	726.51	25.058	-88.993	725.45	116.82	124.17	851.58	1648.7	-26.991	769.87	676.22	-98.929	641.01	1083.4	283.88	754.65	829.37	225.45	840.9	517.48	21.6	627.89	1068.8	-210.86	728.24	383.64	-17.622	813.32	39.405	-27.727	764.72	766.35	180.26	807.62	681.71	167.71	710.98	667.71	-142.35	564.89	1224.8	9.2392	703.8	756.48	-160.24	625.28	1369.2	161.21	680.47	803.83	258.4	680.13	204.37	-13.477	703.51	294	-14.488	677.54	1603.9	80.979	853.18	823.23	-259.27	843.83	317.84	67.81	612.74	59.976	-66.18	764.27	29.606	-7.8526	809.85	235.82	69.876	678.77	495.09	17.782	874.26	414.04	74.75	741.7	991.89	154.28	860.8	710.81	124.53	853.31	1644.7	47.89	756.14	1422.5	160.2	718.04	1241.7	243.19	757.22	114.58	47.801	603.05	1089.3	207.5
629	3.145	863.1	552.75	147.55	678.88	1614.1	-55.743	851.21	55.367	151.35	936.54	69.032	122.61	842.08	322.18	142.56	891.6	57.457	81.093	728.89	1421.8	-163.34	677.07	1082.2	-283.12	710.06	1219	-242.49	787.96	823.31	-270.46	645.25	1481.2	8.8764	717.21	946.42	-283.07	688.49	77.935	62.231	670.91	924.06	284.78	755.59	784.48	276.03	848.24	596.12	151.02	702.82	511.48	-108.02	714.73	575.38	-118.35	556.11	1038.4	-32.467	745.24	1038.8	-152.41	632.53	68.273	18.073	554.21	1037.5	36.612	705.36	291.32	-86.594	545.62	35.704	-19.58	726.56	24.999	-89.056	742.55	112.79	124.01	856.31	1648.7	-26.934	772.65	675.73	-98.679	645.22	1083.5	283.93	758.49	829.25	225.34	846.1	517.11	21.823	634.17	1068.4	-211.3	729.47	383.23	-17.663	813.43	39.281	-27.761	769.46	766.36	180.18	812.73	681.78	167.82	713.86	667.52	-142.33	569.67	1224.8	9.3966	707.85	756.52	-160.61	630	1369.1	161.18	684.26	804	258.66	680.72	204.15	-13.458	704.42	293.7	-14.505	682.25	1603.8	81.033	862.12	825.11	-258.46	855.13	317.2	67.999	612.78	60.011	-66.123	764.26	29.692	-7.8787	823.58	234.24	69.988	680.33	494.93	17.74	882.76	414.17	74.941	746.66	991.72	154.4	865.71	710.83	124.31	858.02	1644.7	47.955	760.9	1422.4	160.25	722.46	1241.6	243.3	774.72	111.48	47.717	607.28	1089.4	207.6
